<svg id="Capa_1" enable-background="new 0 0 511.983 511.983" height="512" viewBox="0 0 511.983 511.983" width="512" xmlns="http://www.w3.org/2000/svg">
  <g>
    <g id="XMLID_4_">
      <path d="m508.724 350.052c-6.302-14.12-20.361-22.688-35.782-21.866l-27.442 1.482c-1.09-1.22-2.217-2.416-3.378-3.578-1.206-1.205-2.446-2.373-3.706-3.495l1.471-27.181c.6-11.034-3.393-21.225-11.243-28.693-5.168-4.917-11.727-8.229-18.643-9.62v-211.109c0-5.522-4.478-10-10-10h-125.001c-5.522 0-10 4.478-10 10s4.478 10 10 10h115v202.657c-4.873 1.832-9.35 4.732-13.225 8.605l-6.798 6.798c-36.224-37.022-85.924-58.06-137.977-58.06-25.597 0-50.057 5.865-72.699 17.434-20.09 10.264-38.041 24.923-52.197 42.566h-57.104v-220h135c5.522 0 10-4.478 10-10s-4.478-10-10-10h-145c-5.522 0-10 4.478-10 10v230h-20c-5.522 0-10 4.478-10 10 0 38.598 31.402 70 70 70h3.259c-1.113 8.924-1.499 17.957-1.111 26.986 1.08 25.277 12.173 48.831 31.237 66.321 18.763 17.213 43.13 26.692 68.614 26.692h208.02c37.915 0 60.184-23.783 62.591-26.217l58.491-58.482c10.932-10.931 13.924-27.12 7.623-41.24zm-77.61 82.704c-9.751-13.042-25.329-21.174-42.064-21.174-5.522 0-10 4.478-10 10s4.478 10 10 10c10.809 0 20.834 5.485 26.793 14.179-10.669 6.634-23.124 10.231-35.824 10.231-18.106 0-35.131-7.054-47.938-19.861-22.595-22.596-26.172-57.325-9.625-83.77 8.694 5.97 14.174 15.997 14.174 26.791 0 5.522 4.478 10 10 10s10-4.478 10-10c0-16.718-8.133-32.292-21.171-42.053 12.684-11.087 28.604-16.743 44.597-16.743 14.759 0 29.571 4.804 41.931 14.561 2.062 1.613 4.077 3.401 5.991 5.316 1.875 1.875 3.636 3.854 5.257 5.914 20.369 25.677 19.229 62.176-2.121 86.609zm-11.199-138.425-.823 15.205c-14.931-7.439-31.437-10.327-47.557-8.758l19.384-19.384c2.861-2.86 6.351-4.573 10.12-4.957 4.96-.51 10.129 1.267 13.817 4.774 2.504 2.382 5.415 6.591 5.059 13.12zm-398.91 1.661h72.398c-7.267 12.53-12.743 25.907-16.357 40h-7.046c-24.146 0-44.35-17.206-48.995-40zm245.589 160c3.453-5.954 5.406-12.82 5.406-20 0-22.056-17.944-40-40-40-11.028 0-20-8.972-20-20v-30c0-22.056-17.944-40-40-40-5.522 0-10 4.478-10 10s4.478 10 10 10c11.028 0 20 8.972 20 20v30c0 7.283 1.966 14.112 5.382 20h-25.382c-11.028 0-20-8.972-20-20 0-5.522-4.478-10-10-10s-10 4.478-10 10c0 22.056 17.944 40 40 40h60c11.028 0 20 8.972 20 20 0 8.841-5.911 16.73-14.428 19.201-1.791.53-3.666.799-5.572.799h-60c-42.301 0-78.13-33.137-79.869-73.87-.493-11.464.402-22.933 2.659-34.088.005-.022.009-.045.013-.068 4.146-20.411 12.618-39.241 25.183-55.969 26.73-35.592 67.558-56.005 112.014-56.005 46.732 0 91.352 18.916 123.836 52.201l-37.897 37.897c-.004.004-.008.009-.012.013-2.227 2.228-4.327 4.571-6.235 6.943-.068.08-.133.162-.198.244-28.073 34.951-25.31 85.23 6.443 116.983 2.019 2.019 4.122 3.924 6.296 5.719zm220.365-78.841-19.533 19.533c1.578-16.18-1.334-32.743-8.811-47.695l15.406-.832c8.617-.488 14.134 4.884 16.438 10.047 2.305 5.163 2.596 12.851-3.5 18.947z" />
    </g>
    <g>
      <circle cx="230" cy="45.992" r="10" />
    </g>
  </g>
</svg>
